<svg t="1743385380147" class="icon" viewBox="0 0 1024 1024" version="1.1" xmlns="http://www.w3.org/2000/svg" p-id="12161" width="256" height="256"><path d="M435.146 0h206.822v63.48h381.904v833.432h-383.44v125.936H517.567a710.574 710.574 0 0 1-80.886 0c-58.36-6.655-116.21-15.87-174.058-24.06L71.671 971.654 0 958.345V62.967l188.392-26.62L379.345 9.214 435.145 0z m523.198 829.336V129.008H641.456v62.968h61.432v63.992h-61.944v62.968h61.944v65.528h-61.944v62.456h61.944v65.016h-61.944v60.92h61.944v65.016h-61.944v65.016h61.944v63.992h-61.432v62.456h316.888zM126.96 266.72l5.12 11.262c35.835 73.207 71.159 145.902 106.994 218.597 5.12 8.19 5.12 18.43 0 26.62l-116.21 215.526-5.63 10.75h97.78c7.166 1.024 14.333-3.583 16.381-10.238 24.573-56.313 48.634-112.626 73.207-168.94v-5.119c27.133 61.433 51.705 122.865 80.886 184.81 2.048 7.166 8.703 11.774 16.382 11.262l78.838 4.607H510.4l-4.607-9.727c-41.979-77.814-84.47-157.676-126.96-239.074a21.788 21.788 0 0 1 0-23.549c40.955-78.326 82.421-157.164 122.864-236.514l5.632-11.263h-21.502l-80.886 4.608c-6.655-0.512-12.286 3.583-14.334 9.726L326.615 404.43c-5.631 12.799-11.262 26.621-17.406 40.955l-4.607-9.726-60.409-156.14c-7.679-19.455-7.679-19.455-29.692-19.455h-8.19l-79.35 6.656z" fill="#FF9600" p-id="12162"></path><path d="M768.928 191.976h126.96v62.456h-126.96v-62.456z m0 127.984h126.96v64.504h-126.96V319.96z m0 126.96h126.96v65.528h-126.96V446.92z m0 128.496h126.96v64.504h-126.96v-64.504z m0 128.496h126.96v62.456h-126.96v-62.456z" fill="#FF9600" p-id="12163"></path></svg>