<svg t="1743384943814" class="icon" viewBox="0 0 1184 1024" version="1.1" xmlns="http://www.w3.org/2000/svg" p-id="2823" width="256" height="256"><path d="M1038.74322 192.279588h-507.843174L412.907958 33.254609H38.443563v851.529039c0 56.445323 46.165221 102.620839 102.589953 102.620839h897.719999c56.429879 0 102.595101-46.175517 102.595101-102.620839V294.869541c-0.010296-56.419584-46.175517-102.589953-102.605396-102.589953z" fill="#F0CF6E" p-id="2824"></path><path d="M1040.107379 192.609046c17.9091 17.136934 29.16213 41.187326 29.16213 67.780717v540.356503c0 51.699077-42.283801 93.988025-93.972582 93.988026H153.007234c-51.683633 0-93.972582-42.288949-93.972582-93.988026V33.254609h-25.738861v851.529039c0 56.445323 46.165221 102.620839 102.589953 102.620839h897.719999c56.429879 0 102.595101-46.175517 102.595101-102.620839V294.869541c-0.010296-54.221485-42.68018-98.857818-96.093465-102.260495z" fill="#6E6E96" opacity=".15" p-id="2825"></path><path d="M38.443563 115.618964h374.464395l117.992088 159.019832h507.843174c45.326134 0 83.970461 29.815897 97.447328 70.771573v-35.097511c0-56.419584-46.165221-102.595101-102.595101-102.595101h-507.843173L407.760186 48.697925H33.295791v851.529039c0 11.108892 1.842902 21.79052 5.147772 31.838972V115.618964z" fill="#FFFFFF" opacity=".23" p-id="2826"></path><path d="M1038.74322 166.540727h-507.843174a25.738861 25.738861 0 0 1 20.668305 10.403648L433.576264 17.919395a25.738861 25.738861 0 0 0-20.668306-10.403648H38.443563a25.738861 25.738861 0 0 0-25.738861 25.738862v851.529039c0 70.771573 57.567537 128.359701 128.328814 128.3597h897.719999c70.761277 0 128.333962-57.588128 128.333962-128.3597V294.869541c-0.010296-70.761277-57.58298-128.328814-128.344257-128.328814z m76.856239 128.328814v589.908959c0 42.381609-34.474631 76.881978-76.856239 76.881978H141.033516c-42.366165 0-76.851092-34.484926-76.851092-76.881978V33.254609a25.738861 25.738861 0 0 1-25.738861 25.738861h374.464395a25.769748 25.769748 0 0 1-20.678601-10.403648L510.23174 207.609654a25.723418 25.723418 0 0 0 20.668306 10.403648h507.843174c42.381609 0.005148 76.856239 34.479778 76.856239 76.856239z" fill="#6E6E96" p-id="2827"></path><path d="M656.176231 274.638796s19.319589 188.454794 216.206433 250.228061 196.886845-30.886633 196.886845-30.886634V260.389763l-413.093278 14.249033z" fill="#6E6E96" opacity=".15" p-id="2828"></path><path d="M948.708683 238.800006m-210.301939 0a210.301939 210.301939 0 1 0 420.603878 0 210.301939 210.301939 0 1 0-420.603878 0Z" fill="#F78383" p-id="2829"></path><path d="M948.708683 54.236928c101.771457 0 184.568226 82.796769 184.568226 184.568226 0 101.766309-82.796769 184.55793-184.568226 184.55793-101.776605 0-184.568226-82.791621-184.568225-184.55793 0.010296-101.771457 82.801916-184.568226 184.568225-184.568226zM712.673031 238.805154c0 130.151125 105.884527 236.0408 236.045948 236.0408S1184.759779 368.961427 1184.759779 238.805154c0-130.156273-105.879379-236.045948-236.045948-236.045948-130.156273 0-236.0408 105.889675-236.0408 236.045948z" fill="#6E6E96" p-id="2830"></path><path d="M1115.393548 131.340261a180.928751 180.928751 0 0 1 8.653405 55.374586c0 100.062397-81.113447 181.170696-181.170696 181.170696-91.867143 0-167.693828-68.362415-179.523408-156.986462a194.343845 194.343845 0 0 0-1.652435 24.874035c0 106.198541 86.086195 192.284736 192.284736 192.284736 106.208837 0 192.289884-86.086195 192.289884-192.284736a191.461093 191.461093 0 0 0-30.881486-104.432855z" fill="#6E6E96" opacity=".15" p-id="2831"></path></svg>