<svg t="1743385467703" class="icon" viewBox="0 0 1024 1024" version="1.1" xmlns="http://www.w3.org/2000/svg" p-id="13292" width="256" height="256"><path d="M163.18464 61.44a74.3936 74.3936 0 0 0-75.10016 73.02144v770.27328a74.3936 74.3936 0 0 0 75.10016 73.02144h674.46784a74.3936 74.3936 0 0 0 75.10016-73.02144v-552.6528L634.43968 61.44z" fill="#FA5858" p-id="13293"></path><path d="M912.76288 354.89792v14.6432H725.28896s-92.27264-19.03616-90.80832-99.59424c0 0 4.39296 84.992 89.344 84.992z" fill="#DC3119" p-id="13294"></path><path d="M635.94496 61.44v213.84192a85.10464 85.10464 0 0 0 89.344 84.992h187.47392z" fill="#FFFFFF" p-id="13295"></path><path d="M219.61728 762.17344h-49.79712v61.52192a10.01472 10.01472 0 0 1-10.24 10.24 11.3152 11.3152 0 0 1-11.71456-10.24V672.80896a16.25088 16.25088 0 0 1 16.10752-16.10752h55.6544a50.35008 50.35008 0 0 1 54.19008 52.72576 51.13856 51.13856 0 0 1-54.20032 52.74624z m-2.92864-86.41536h-46.86848v67.3792h46.86848a33.51552 33.51552 0 0 0 35.15392-33.6896 32.68608 32.68608 0 0 0-35.15392-33.71008z m164.0448 86.41536h-49.79712v61.52192a10.24 10.24 0 0 1-20.48 0V672.80896a15.0528 15.0528 0 0 1 14.6432-16.10752h55.6544a52.74624 52.74624 0 1 1 0 105.472z m-2.92864-86.41536h-45.40416v67.3792h45.40416a33.51552 33.51552 0 0 0 35.15392-33.6896 32.68608 32.68608 0 0 0-35.16416-33.71008z m206.52032 0h-48.384v147.93728a10.01472 10.01472 0 0 1-10.24 10.24 11.3152 11.3152 0 0 1-11.71456-10.24V675.7376h-46.86848a10.01472 10.01472 0 0 1-10.24-10.24 9.78944 9.78944 0 0 1 10.24-8.78592H584.2944a10.01472 10.01472 0 0 1 10.24 10.24 9.78944 9.78944 0 0 1-10.21952 8.78592z" fill="#FFFFFF" p-id="13296"></path></svg>