<svg t="1743385083103" class="icon" viewBox="0 0 1024 1024" version="1.1" xmlns="http://www.w3.org/2000/svg" p-id="4997" width="256" height="256"><path d="M748.7 796A141.5 141.5 0 0 0 878 654.3c0-59-35.6-111-90.8-132.5L736.3 502l-0.9-54.6c-0.1-5.3-0.6-10.5-1-15.7a228.5 228.5 0 0 0-74.3-12.5 231.5 231.5 0 0 0-29 1.9l52 52a40.7 40.7 0 0 1-57.5 57.5l-72.9-72.9v257.6a40.7 40.7 0 0 1-81.4 0V518.8a239.1 239.1 0 0 0-20.1 35.2c-80.3 10-142.5 78.3-142.5 161.3a161.7 161.7 0 0 0 21.9 81.4H741z" fill="#3FE699" p-id="4998"></path><path d="M816.8 446.1C814.1 279.9 678.8 146 512 146S209.9 279.9 207.2 446.1C123.9 478.6 64.7 559.4 64.7 654.3 64.7 771 154 866.7 268 877v1h488v-1c114-10.3 203.3-106 203.3-222.7 0-94.9-59.2-175.7-142.5-208.2zM330.6 796.7H283l-7.7-0.7A141.5 141.5 0 0 1 146 654.3c0-59 35.6-111 90.8-132.5l50.9-19.8 0.9-54.6C290.5 326 390.7 227.3 512 227.3c116 0 212.5 90.4 222.4 204.4 0.4 5.2 0.9 10.4 1 15.7l0.9 54.6 50.9 19.8c55.2 21.5 90.8 73.5 90.8 132.5A141.5 141.5 0 0 1 748.7 796l-7.7 0.7z" fill="#2D515E" p-id="4999"></path><path d="M483.2 330.7L340.9 473.1a40.7 40.7 0 0 0 57.5 57.5l72.9-72.9v257.6a40.7 40.7 0 0 0 81.4 0V457.7l72.9 72.9a40.7 40.7 0 0 0 57.5-57.5l-52-52-90.3-90.4a40.9 40.9 0 0 0-57.6 0z" fill="#2D515E" p-id="5000"></path></svg>