<svg t="1743385559860" class="icon" viewBox="0 0 1024 1024" version="1.1" xmlns="http://www.w3.org/2000/svg" p-id="14333" width="256" height="256"><path d="M530.602667 931.413333c-17.834667 0-32.298667-16.725333-32.298667-37.376V134.272c0-20.608 14.506667-37.376 32.298667-37.376h460.245333c17.834667 0 32.298667 16.768 32.298667 37.376v759.765333c0 20.650667-14.506667 37.418667-32.298667 37.418667H530.602667z" fill="#E8E8E8" p-id="14334"></path><path d="M914.176 352.085333h-331.818667c-17.962667 0-32.597333-14.037333-32.597333-31.274666 0-17.237333 14.634667-31.232 32.597333-31.232h331.818667c18.005333 0 32.597333 13.994667 32.597333 31.232 0 16.213333-14.592 31.274667-32.597333 31.274666z m0 127.146667h-331.818667c-17.962667 0-32.597333-13.994667-32.597333-31.232 0-17.237333 14.634667-31.232 32.597333-31.232h331.818667c18.005333 0 32.597333 13.994667 32.597333 31.232 0 17.237333-14.592 31.274667-32.597333 31.274667z m0 126.165333h-331.818667c-17.962667 0-32.597333-14.037333-32.597333-31.274666 0-17.237333 14.634667-31.274667 32.597333-31.274667h331.818667c18.005333 0 32.597333 14.037333 32.597333 31.274667 0 17.237333-14.592 31.274667-32.597333 31.274666z m0 127.146667h-331.818667c-17.962667 0-32.597333-13.994667-32.597333-31.232 0-17.237333 14.634667-31.274667 32.597333-31.274667h331.818667c18.005333 0 32.597333 14.037333 32.597333 31.274667 0 17.237333-14.592 31.274667-32.597333 31.274667z" fill="#B2B2B2" p-id="14335"></path><path d="M567.210667 1019.306667L0 926.592V98.517333L567.210667 0.682667z" fill="#0D47A1" p-id="14336"></path><path d="M443.178667 704.554667H364.458667l-51.754667-249.002667a187.306667 187.306667 0 0 1-4.48-43.093333h-1.152c-1.109333 17.237333-3.370667 32.298667-5.589333 43.093333L247.466667 704.554667H165.376L83.285333 316.501333H160.853333L204.8 575.189333c2.218667 10.794667 3.370667 25.898667 4.48 44.202667h1.109333c0-13.994667 3.413333-29.098667 6.784-45.269333l56.234667-257.621334h75.349333l51.712 260.864c2.261333 9.685333 3.413333 23.722667 4.522667 42.026667h1.109333c1.152-13.994667 2.261333-28.032 4.522667-43.093333l43.861333-258.730667h70.826667l-82.090667 386.986667z" fill="#FFFFFF" p-id="14337"></path></svg>