<svg t="1743312387565" class="icon" viewBox="0 0 1024 1024" version="1.1" xmlns="http://www.w3.org/2000/svg" p-id="4613" width="256" height="256"><path d="M256 256H128V128h128v128z m0 16v304H128V272h128zM896 752H768V448h128v304z m0 16v128H768V768h128zM256 128h128v128H256zM640 768h128v128H640zM752 128v128H448V128h304z m16 0h128v128H768V128zM256 768v128H128V768h128z m16 0h304v128H272V768zM128 640h128v128H128zM768 256h128v128H768z" fill="#666A76" p-id="4614"></path><path d="M352 352h144v128H352z" fill="#6ACE90" p-id="4615"></path><path d="M528 544h144v128H528z" fill="#FF6161" p-id="4616"></path><path d="M352 512h144v160H352z" fill="#68B3FF" p-id="4617"></path><path d="M528 352h144v160H528z" fill="#FFEA9D" p-id="4618"></path></svg>